<svg width="89" height="26" viewBox="0 0 89 26" fill="none" xmlns="http://www.w3.org/2000/svg">
<path d="M24.8781 1.57478C21.2943 3.1288 18.122 5.49767 15.5674 8.45108H17.5432C19.8329 6.07297 22.5796 4.1698 25.6154 2.85349C26.4792 2.47897 25.7342 1.20365 24.8781 1.57478Z" fill="#F7B40F"/>
<path d="M14.9493 9.19238H0C0 16.4303 5.78877 22.2979 12.9295 22.2979C20.0701 22.2979 25.8589 16.4303 25.8589 9.19238H16.8598H14.9493Z" fill="#CA2617"/>
<path d="M25.8589 23.7793H0V26.0005H25.8589V23.7793Z" fill="#F7B40F"/>
<path d="M8.81927 5.56807C8.83302 5.53579 8.84104 5.50545 8.8514 5.47535C8.86267 5.44544 8.88282 5.41762 8.89714 5.39037C8.91586 5.36356 8.91977 5.33675 8.9424 5.31289C8.96288 5.28889 8.97936 5.26581 8.99559 5.24374C9.00891 5.22153 9.0292 5.20018 9.05183 5.1802C9.07317 5.16021 9.09112 5.14037 9.10736 5.12067C9.15061 5.08157 9.20084 5.04368 9.2355 5.00342C9.29332 4.96388 9.34259 4.92168 9.38833 4.87871C9.44209 4.84952 9.48811 4.81783 9.52798 4.78008C9.53204 4.77413 9.5613 4.75385 9.58527 4.73657L9.65817 4.68402C9.70726 4.64937 9.75505 4.61278 9.80279 4.5762L9.90988 4.49533L10.0966 4.34913C10.3404 4.1393 10.5679 3.88431 10.7489 3.58887C10.9307 3.29464 11.0594 2.95835 11.1159 2.62487C11.1741 2.29124 11.161 1.9656 11.1016 1.68245C11.0435 1.39799 10.9365 1.15574 10.8208 0.954903C10.5833 0.553139 10.296 0.315478 10.0804 0.177314C9.97405 0.10695 9.87632 0.0662509 9.81511 0.0372147C9.75142 0.00953356 9.71384 0 9.71384 0C9.71384 0 9.7127 0.0372147 9.71064 0.107095C9.71136 0.173443 9.70157 0.274876 9.6969 0.391262C9.68334 0.625826 9.65832 0.943918 9.59172 1.25383C9.56044 1.40825 9.51256 1.56036 9.45655 1.69513C9.39988 1.83078 9.33252 1.94833 9.25861 2.05184C9.18422 2.15569 9.10387 2.24779 9.01173 2.34477C8.91925 2.44117 8.81216 2.54115 8.68912 2.64655L8.59196 2.72577L8.56785 2.7459L8.56189 2.75094L8.50712 2.7943L8.50287 2.79817L8.48607 2.81341L8.41889 2.87395C8.37406 2.91426 8.32933 2.95453 8.28621 2.99644L8.22104 3.05848C8.19913 3.07948 8.18056 3.09535 8.14628 3.13547C8.02358 3.27184 7.90813 3.41315 7.80238 3.55485C7.71281 3.70279 7.63174 3.85174 7.55941 3.99896C7.52728 4.0807 7.49935 4.16393 7.47319 4.24538C7.44807 4.32828 7.419 4.40411 7.40553 4.4903C7.3915 4.5762 7.37951 4.66089 7.37135 4.74412C7.36739 4.78531 7.36347 4.82634 7.35951 4.86704C7.35731 4.90794 7.36151 4.95028 7.36299 4.99103C7.37044 5.15494 7.38419 5.30955 7.42974 5.45198C7.45075 5.52292 7.4677 5.5928 7.49357 5.65663C7.52146 5.71988 7.5469 5.78134 7.57755 5.83879C7.63265 5.95653 7.70685 6.05099 7.77187 6.14105C7.84229 6.22768 7.91463 6.30012 7.98328 6.36541C8.05824 6.42556 8.12369 6.48092 8.19163 6.52414C8.2612 6.5659 8.32121 6.60379 8.38141 6.63138C8.49815 6.6894 8.60103 6.71621 8.66616 6.73562C8.73391 6.75309 8.77239 6.75604 8.77239 6.75604C8.77239 6.75604 8.76785 6.71902 8.7594 6.64972C8.74933 6.5841 8.74579 6.48252 8.73763 6.36879C8.73615 6.31285 8.73457 6.25067 8.73266 6.18311C8.73486 6.12015 8.7372 6.05206 8.73968 5.97932C8.7541 5.83937 8.77239 5.69646 8.81927 5.56807Z" fill="#F7B40F" fill-opacity="0.2"/>
<path d="M13.0071 5.56807C13.0208 5.53579 13.0289 5.50545 13.0392 5.47535C13.0506 5.44544 13.0707 5.41762 13.0849 5.39037C13.1037 5.36356 13.1076 5.33675 13.1302 5.31289C13.1507 5.28889 13.1671 5.26581 13.1834 5.24374C13.1967 5.22153 13.2169 5.20018 13.2396 5.1802C13.261 5.16021 13.279 5.14037 13.2952 5.12067C13.3384 5.08157 13.3886 5.04368 13.4233 5.00342C13.4812 4.96388 13.5304 4.92168 13.5761 4.87871C13.6299 4.84952 13.676 4.81783 13.7158 4.78008C13.7199 4.77413 13.749 4.75385 13.773 4.73657L13.8459 4.68402C13.895 4.64937 13.9428 4.61278 13.9905 4.5762L14.0977 4.49533L14.2843 4.34913C14.5282 4.1393 14.7556 3.88431 14.9366 3.58887C15.1184 3.29464 15.2471 2.95835 15.3037 2.62487C15.3619 2.29124 15.3488 1.9656 15.2893 1.68245C15.2312 1.39799 15.1243 1.15574 15.0085 0.954903C14.771 0.553139 14.4838 0.315478 14.2683 0.177314C14.1619 0.10695 14.0642 0.0662509 14.0029 0.0372147C13.9392 0.00953356 13.9017 0 13.9017 0C13.9017 0 13.9005 0.0372147 13.8985 0.107095C13.8992 0.173443 13.8895 0.274876 13.8848 0.391262C13.8712 0.625826 13.8462 0.943918 13.7796 1.25383C13.7484 1.40825 13.7004 1.56036 13.6445 1.69513C13.5878 1.83078 13.5205 1.94833 13.4465 2.05184C13.3721 2.15569 13.2919 2.24779 13.1996 2.34477C13.1071 2.44117 13 2.54115 12.8771 2.64655L12.7799 2.72577L12.7558 2.7459L12.7498 2.75094L12.6951 2.7943L12.6909 2.79817L12.6741 2.81341L12.6068 2.87395C12.562 2.91426 12.5173 2.95453 12.4742 2.99644L12.409 3.05848C12.3871 3.07948 12.3685 3.09535 12.3342 3.13547C12.2115 3.27184 12.0961 3.41315 11.9903 3.55485C11.9007 3.70279 11.8197 3.85174 11.7473 3.99896C11.7152 4.0807 11.6873 4.16393 11.6612 4.24538C11.6361 4.32828 11.607 4.40411 11.5935 4.4903C11.5795 4.5762 11.5675 4.66089 11.5593 4.74412C11.5554 4.78531 11.5515 4.82634 11.5475 4.86704C11.5453 4.90794 11.5495 4.95028 11.551 4.99103C11.5584 5.15494 11.5722 5.30955 11.6177 5.45198C11.6388 5.52292 11.6557 5.5928 11.6816 5.65663C11.7094 5.71988 11.7349 5.78134 11.7655 5.83879C11.8208 5.95653 11.8948 6.05099 11.9599 6.14105C12.0303 6.22768 12.1026 6.30012 12.1713 6.36541C12.2462 6.42556 12.3117 6.48092 12.3796 6.52414C12.4492 6.5659 12.5092 6.60379 12.5694 6.63138C12.6861 6.6894 12.789 6.71621 12.8541 6.73562C12.9219 6.75309 12.9604 6.75604 12.9604 6.75604C12.9604 6.75604 12.9558 6.71902 12.9474 6.64972C12.9373 6.5841 12.9338 6.48252 12.9256 6.36879C12.9242 6.31285 12.9226 6.25067 12.9206 6.18311C12.9228 6.12015 12.9252 6.05206 12.9277 5.97932C12.9419 5.83937 12.9601 5.69646 13.0071 5.56807Z" fill="#F7B40F" fill-opacity="0.2"/>
<path d="M64.255 18.335C64.729 18.335 65.128 18.281 65.452 18.173C65.782 18.059 66.049 17.906 66.253 17.714C66.463 17.522 66.613 17.297 66.703 17.039C66.799 16.775 66.847 16.493 66.847 16.193C66.847 15.581 66.637 15.101 66.217 14.753C65.803 14.399 65.146 14.222 64.246 14.222H61.645V18.335H64.255ZM61.645 8.687V12.737H63.751C64.651 12.737 65.323 12.563 65.767 12.215C66.211 11.867 66.433 11.366 66.433 10.712C66.433 9.998 66.223 9.482 65.803 9.164C65.389 8.846 64.738 8.687 63.85 8.687H61.645ZM63.85 7.04C64.678 7.04 65.386 7.121 65.974 7.283C66.562 7.439 67.045 7.664 67.423 7.958C67.801 8.252 68.077 8.612 68.251 9.038C68.431 9.458 68.521 9.932 68.521 10.46C68.521 10.766 68.473 11.063 68.377 11.351C68.287 11.633 68.143 11.9 67.945 12.152C67.753 12.398 67.51 12.62 67.216 12.818C66.922 13.016 66.574 13.181 66.172 13.313C68.008 13.703 68.926 14.678 68.926 16.238C68.926 16.79 68.821 17.297 68.611 17.759C68.407 18.215 68.107 18.611 67.711 18.947C67.321 19.277 66.838 19.535 66.262 19.721C65.686 19.907 65.029 20 64.291 20H59.539V7.04H63.85ZM74.7671 10.676C75.4451 10.676 76.0571 10.787 76.6031 11.009C77.1551 11.231 77.6231 11.546 78.0071 11.954C78.3971 12.362 78.6971 12.857 78.9071 13.439C79.1171 14.021 79.2221 14.675 79.2221 15.401C79.2221 16.127 79.1171 16.781 78.9071 17.363C78.6971 17.945 78.3971 18.443 78.0071 18.857C77.6231 19.265 77.1551 19.58 76.6031 19.802C76.0571 20.024 75.4451 20.135 74.7671 20.135C74.0831 20.135 73.4651 20.024 72.9131 19.802C72.3671 19.58 71.8991 19.265 71.5091 18.857C71.1191 18.443 70.8191 17.945 70.6091 17.363C70.3991 16.781 70.2941 16.127 70.2941 15.401C70.2941 14.675 70.3991 14.021 70.6091 13.439C70.8191 12.857 71.1191 12.362 71.5091 11.954C71.8991 11.546 72.3671 11.231 72.9131 11.009C73.4651 10.787 74.0831 10.676 74.7671 10.676ZM74.7671 18.623C75.5951 18.623 76.2101 18.347 76.6121 17.795C77.0201 17.237 77.2241 16.442 77.2241 15.41C77.2241 14.378 77.0201 13.583 76.6121 13.025C76.2101 12.461 75.5951 12.179 74.7671 12.179C73.9271 12.179 73.3031 12.461 72.8951 13.025C72.4871 13.583 72.2831 14.378 72.2831 15.41C72.2831 16.442 72.4871 17.237 72.8951 17.795C73.3031 18.347 73.9271 18.623 74.7671 18.623ZM88.5435 20H86.6895C86.5395 20 86.4195 19.961 86.3295 19.883C86.2455 19.805 86.1765 19.718 86.1225 19.622L84.0075 16.229C83.9535 16.433 83.8815 16.61 83.7915 16.76L81.8745 19.622C81.8085 19.718 81.7335 19.805 81.6495 19.883C81.5715 19.961 81.4665 20 81.3345 20H79.6065L82.7835 15.266L79.7325 10.82H81.5865C81.7365 10.82 81.8445 10.844 81.9105 10.892C81.9825 10.934 82.0455 11 82.0995 11.09L84.1785 14.33C84.2325 14.132 84.3165 13.943 84.4305 13.763L86.1855 11.126C86.3055 10.922 86.4585 10.82 86.6445 10.82H88.4175L85.3665 15.185L88.5435 20Z" fill="#CA2617"/>
<path d="M32.928 20L33.152 7.04H35.952L37.552 15.216L39.264 7.04H41.968L42.192 20H40.272L40.064 11.216L38.416 20H36.768L35.04 11.152L34.864 20H32.928ZM46.869 20.16C46.1863 20.16 45.6157 20.0373 45.157 19.792C44.6983 19.536 44.3517 19.168 44.117 18.688C43.8823 18.1973 43.765 17.6107 43.765 16.928V13.824C43.765 13.12 43.8823 12.5333 44.117 12.064C44.3517 11.584 44.7037 11.2213 45.173 10.976C45.6423 10.72 46.2077 10.592 46.869 10.592C47.573 10.592 48.1437 10.72 48.581 10.976C49.0183 11.232 49.3383 11.6053 49.541 12.096C49.7543 12.5867 49.861 13.184 49.861 13.888V15.504H46.149V17.296C46.149 17.5627 46.1757 17.7813 46.229 17.952C46.293 18.1227 46.3783 18.2453 46.485 18.32C46.5917 18.384 46.725 18.416 46.885 18.416C47.0343 18.416 47.1623 18.384 47.269 18.32C47.3863 18.2453 47.4717 18.1333 47.525 17.984C47.5783 17.8347 47.605 17.6373 47.605 17.392V16.512H49.845V17.28C49.845 18.2187 49.589 18.9333 49.077 19.424C48.565 19.9147 47.829 20.16 46.869 20.16ZM46.149 14.352H47.605V13.44C47.605 13.1733 47.5783 12.96 47.525 12.8C47.4717 12.6293 47.3863 12.512 47.269 12.448C47.1623 12.3733 47.0237 12.336 46.853 12.336C46.693 12.336 46.5597 12.3733 46.453 12.448C46.357 12.5227 46.2823 12.656 46.229 12.848C46.1757 13.0293 46.149 13.2907 46.149 13.632V14.352ZM53.1564 20.16C52.719 20.16 52.3404 20.048 52.0204 19.824C51.711 19.6 51.4764 19.3173 51.3164 18.976C51.1564 18.6347 51.0764 18.2827 51.0764 17.92C51.0764 17.344 51.1884 16.8587 51.4124 16.464C51.6364 16.0693 51.9297 15.7387 52.2924 15.472C52.655 15.2053 53.0604 14.976 53.5084 14.784C53.9564 14.592 54.4044 14.416 54.8524 14.256V13.392C54.8524 13.1893 54.8364 13.0133 54.8044 12.864C54.7724 12.7147 54.7084 12.6027 54.6124 12.528C54.527 12.4427 54.399 12.4 54.2284 12.4C54.0577 12.4 53.9244 12.4373 53.8284 12.512C53.743 12.576 53.679 12.6773 53.6364 12.816C53.6044 12.944 53.583 13.088 53.5724 13.248L53.5244 13.888L51.2364 13.792C51.2897 12.704 51.5724 11.8987 52.0844 11.376C52.607 10.8533 53.391 10.592 54.4364 10.592C55.375 10.592 56.0684 10.8533 56.5164 11.376C56.9644 11.888 57.1884 12.5653 57.1884 13.408V17.712C57.1884 18.0747 57.1937 18.4 57.2044 18.688C57.2257 18.9653 57.247 19.216 57.2684 19.44C57.3004 19.6533 57.327 19.84 57.3484 20H55.1724C55.1404 19.7653 55.103 19.5093 55.0604 19.232C55.0177 18.9547 54.9857 18.768 54.9644 18.672C54.8577 19.056 54.655 19.4027 54.3564 19.712C54.0577 20.0107 53.6577 20.16 53.1564 20.16ZM54.0364 18.448C54.1537 18.448 54.2657 18.4213 54.3724 18.368C54.479 18.3147 54.5697 18.2453 54.6444 18.16C54.7297 18.0747 54.799 17.9947 54.8524 17.92V15.376C54.6284 15.5147 54.4204 15.6533 54.2284 15.792C54.0364 15.92 53.871 16.064 53.7324 16.224C53.5937 16.384 53.487 16.56 53.4124 16.752C53.3377 16.944 53.3004 17.1627 53.3004 17.408C53.3004 17.728 53.3644 17.984 53.4924 18.176C53.6204 18.3573 53.8017 18.448 54.0364 18.448ZM58.8659 20V7.04H61.2819V20H58.8659Z" fill="#F7B40F"/>
</svg>
