<svg width="26" height="26" viewBox="0 0 26 26" fill="none" xmlns="http://www.w3.org/2000/svg">
<path d="M24.8781 1.57478C21.2943 3.1288 18.122 5.49767 15.5674 8.45108H17.5432C19.8329 6.07297 22.5796 4.1698 25.6154 2.85349C26.4792 2.47897 25.7342 1.20365 24.8781 1.57478Z" fill="#F7B40F"/>
<path d="M14.9493 9.19238H0C0 16.4303 5.78877 22.2979 12.9295 22.2979C20.0701 22.2979 25.8589 16.4303 25.8589 9.19238H16.8598H14.9493Z" fill="#CA2617"/>
<path d="M25.8589 23.7793H0V26.0005H25.8589V23.7793Z" fill="#F7B40F"/>
<path d="M8.81927 5.56807C8.83302 5.53579 8.84104 5.50545 8.8514 5.47535C8.86267 5.44544 8.88282 5.41762 8.89714 5.39037C8.91586 5.36356 8.91977 5.33675 8.9424 5.31289C8.96288 5.28889 8.97936 5.26581 8.99559 5.24374C9.00891 5.22153 9.0292 5.20018 9.05183 5.1802C9.07317 5.16021 9.09112 5.14037 9.10736 5.12067C9.15061 5.08157 9.20084 5.04368 9.2355 5.00342C9.29332 4.96388 9.34259 4.92168 9.38833 4.87871C9.44209 4.84952 9.48811 4.81783 9.52798 4.78008C9.53204 4.77413 9.5613 4.75385 9.58527 4.73657L9.65817 4.68402C9.70726 4.64937 9.75505 4.61278 9.80279 4.5762L9.90988 4.49533L10.0966 4.34913C10.3404 4.1393 10.5679 3.88431 10.7489 3.58887C10.9307 3.29464 11.0594 2.95835 11.1159 2.62487C11.1741 2.29124 11.161 1.9656 11.1016 1.68245C11.0435 1.39799 10.9365 1.15574 10.8208 0.954903C10.5833 0.553139 10.296 0.315478 10.0804 0.177314C9.97405 0.10695 9.87632 0.0662509 9.81511 0.0372147C9.75142 0.00953356 9.71384 0 9.71384 0C9.71384 0 9.7127 0.0372147 9.71064 0.107095C9.71136 0.173443 9.70157 0.274876 9.6969 0.391262C9.68334 0.625826 9.65832 0.943918 9.59172 1.25383C9.56044 1.40825 9.51256 1.56036 9.45655 1.69513C9.39988 1.83078 9.33252 1.94833 9.25861 2.05184C9.18422 2.15569 9.10387 2.24779 9.01173 2.34477C8.91925 2.44117 8.81216 2.54115 8.68912 2.64655L8.59196 2.72577L8.56785 2.7459L8.56189 2.75094L8.50712 2.7943L8.50287 2.79817L8.48607 2.81341L8.41889 2.87395C8.37406 2.91426 8.32933 2.95453 8.28621 2.99644L8.22104 3.05848C8.19913 3.07948 8.18056 3.09535 8.14628 3.13547C8.02358 3.27184 7.90813 3.41315 7.80238 3.55485C7.71281 3.70279 7.63174 3.85174 7.55941 3.99896C7.52728 4.0807 7.49935 4.16393 7.47319 4.24538C7.44807 4.32828 7.419 4.40411 7.40553 4.4903C7.3915 4.5762 7.37951 4.66089 7.37135 4.74412C7.36739 4.78531 7.36347 4.82634 7.35951 4.86704C7.35731 4.90794 7.36151 4.95028 7.36299 4.99103C7.37044 5.15494 7.38419 5.30955 7.42974 5.45198C7.45075 5.52292 7.4677 5.5928 7.49357 5.65663C7.52146 5.71988 7.5469 5.78134 7.57755 5.83879C7.63265 5.95653 7.70685 6.05099 7.77187 6.14105C7.84229 6.22768 7.91463 6.30012 7.98328 6.36541C8.05824 6.42556 8.12369 6.48092 8.19163 6.52414C8.2612 6.5659 8.32121 6.60379 8.38141 6.63138C8.49815 6.6894 8.60104 6.71621 8.66616 6.73562C8.73391 6.75309 8.77239 6.75604 8.77239 6.75604C8.77239 6.75604 8.76785 6.71902 8.7594 6.64972C8.74933 6.5841 8.74579 6.48252 8.73763 6.36879C8.73615 6.31285 8.73457 6.25067 8.73266 6.18311C8.73486 6.12015 8.7372 6.05206 8.73968 5.97932C8.7541 5.83937 8.77239 5.69646 8.81927 5.56807Z" fill="#F7B40F" fill-opacity="0.2"/>
<path d="M13.0071 5.56807C13.0208 5.53579 13.0289 5.50545 13.0392 5.47535C13.0506 5.44544 13.0707 5.41762 13.0849 5.39037C13.1037 5.36356 13.1076 5.33675 13.1302 5.31289C13.1507 5.28889 13.1671 5.26581 13.1834 5.24374C13.1967 5.22153 13.2169 5.20018 13.2396 5.1802C13.261 5.16021 13.279 5.14037 13.2952 5.12067C13.3384 5.08157 13.3886 5.04368 13.4233 5.00342C13.4812 4.96388 13.5304 4.92168 13.5761 4.87871C13.6299 4.84952 13.676 4.81783 13.7158 4.78008C13.7199 4.77413 13.749 4.75385 13.773 4.73657L13.8459 4.68402C13.895 4.64937 13.9428 4.61278 13.9905 4.5762L14.0977 4.49533L14.2843 4.34913C14.5282 4.1393 14.7556 3.88431 14.9366 3.58887C15.1184 3.29464 15.2471 2.95835 15.3037 2.62487C15.3619 2.29124 15.3488 1.9656 15.2893 1.68245C15.2312 1.39799 15.1243 1.15574 15.0085 0.954903C14.771 0.553139 14.4838 0.315478 14.2683 0.177314C14.1619 0.10695 14.0642 0.0662509 14.0029 0.0372147C13.9392 0.00953356 13.9017 0 13.9017 0C13.9017 0 13.9005 0.0372147 13.8985 0.107095C13.8992 0.173443 13.8895 0.274876 13.8848 0.391262C13.8712 0.625826 13.8462 0.943918 13.7796 1.25383C13.7484 1.40825 13.7004 1.56036 13.6445 1.69513C13.5878 1.83078 13.5205 1.94833 13.4465 2.05184C13.3721 2.15569 13.2919 2.24779 13.1996 2.34477C13.1071 2.44117 13 2.54115 12.8771 2.64655L12.7799 2.72577L12.7558 2.7459L12.7498 2.75094L12.6951 2.7943L12.6909 2.79817L12.6741 2.81341L12.6068 2.87395C12.562 2.91426 12.5173 2.95453 12.4742 2.99644L12.409 3.05848C12.3871 3.07948 12.3685 3.09535 12.3342 3.13547C12.2115 3.27184 12.0961 3.41315 11.9903 3.55485C11.9007 3.70279 11.8197 3.85174 11.7473 3.99896C11.7152 4.0807 11.6873 4.16393 11.6612 4.24538C11.6361 4.32828 11.607 4.40411 11.5935 4.4903C11.5795 4.5762 11.5675 4.66089 11.5593 4.74412C11.5554 4.78531 11.5515 4.82634 11.5475 4.86704C11.5453 4.90794 11.5495 4.95028 11.551 4.99103C11.5584 5.15494 11.5722 5.30955 11.6177 5.45198C11.6388 5.52292 11.6557 5.5928 11.6816 5.65663C11.7094 5.71988 11.7349 5.78134 11.7655 5.83879C11.8208 5.95653 11.8948 6.05099 11.9599 6.14105C12.0303 6.22768 12.1026 6.30012 12.1713 6.36541C12.2462 6.42556 12.3117 6.48092 12.3796 6.52414C12.4492 6.5659 12.5092 6.60379 12.5694 6.63138C12.6861 6.6894 12.789 6.71621 12.8541 6.73562C12.9219 6.75309 12.9604 6.75604 12.9604 6.75604C12.9604 6.75604 12.9558 6.71902 12.9474 6.64972C12.9373 6.5841 12.9338 6.48252 12.9256 6.36879C12.9242 6.31285 12.9226 6.25067 12.9206 6.18311C12.9228 6.12015 12.9252 6.05206 12.9277 5.97932C12.9419 5.83937 12.9601 5.69646 13.0071 5.56807Z" fill="#F7B40F" fill-opacity="0.2"/>
</svg>
